<svg id="Layer_1" enable-background="new 0 0 512 512" height="512" viewBox="0 0 512 512" width="512" xmlns="http://www.w3.org/2000/svg"><g><g><path d="m476.499 442.765c-.585-35.923-15.169-62.628-44.584-81.643-24.582-15.89-55.33-23.837-85.066-31.523-10.385-2.684-20.31-5.249-29.597-8.062v-33.244c30.827-20.107 51.251-54.915 51.251-94.413v-12.51c8.49-1.273 16.469-5.885 21.768-13.469 10.18-14.628 6.573-34.819-8.032-45.005-1.735-1.212-3.484-2.388-5.24-3.548v-36.952c-.001-45.434-36.929-82.396-82.319-82.396h-77.36c-45.391 0-82.318 36.962-82.318 82.396v36.952c-1.756 1.16-3.505 2.336-5.24 3.548-14.607 10.191-18.211 30.38-8.032 45.006 4.923 7.075 12.321 11.809 20.833 13.331.312.056.623.099.935.146v12.502c0 39.497 20.424 74.305 51.251 94.413v33.244c-9.287 2.813-19.212 5.378-29.597 8.062-29.736 7.686-60.484 15.633-85.066 31.523-29.415 19.015-43.999 45.72-44.584 81.643-.001.054-.001.108-.001.163v59.071c0 5.523 4.478 10 10 10h165.647c5.522 0 10-4.477 10-10s-4.478-10-10-10h-96.241v-51.936c0-2.539 2.15-4.683 4.696-4.683h272.795c2.53 0 4.668 2.145 4.668 4.683v51.936h-96.213c-5.522 0-10 4.477-10 10s4.478 10 10 10h165.647c5.522 0 10-4.477 10-10v-59.073c0-.054 0-.108-.001-.162zm-366.896-25.262c-8.648 3.844-14.696 12.507-14.696 22.561v51.936h-39.407v-48.988c.689-40.42 23.481-61.412 54.103-74.994zm42.247-2.122h-22.247v-54.984c7.235-2.397 14.699-4.563 22.247-6.619zm3.152-332.985c0-34.405 27.956-62.396 62.318-62.396h77.359c34.362 0 62.318 27.991 62.318 62.396v25.085c-9.043-4.78-18.295-8.915-27.707-12.38.004-.248.023-.495.023-.743 0-14.912-7.89-28.695-22.217-38.811-13.271-9.37-30.733-14.53-49.172-14.53s-35.902 5.16-49.173 14.53c-14.123 9.972-21.974 23.51-22.195 38.179-10.739 3.73-21.283 8.326-31.556 13.755v-25.085zm153.493 6.206c-17.217-4.451-34.816-6.732-52.495-6.732-16.259 0-32.449 1.931-48.337 5.702 4.985-14.95 25.979-26.555 50.263-26.555 24.838 0 46.224 12.142 50.569 27.585zm-162.412 72.941c-3.249-.581-6.068-2.38-7.938-5.067-3.887-5.585-2.514-13.292 3.063-17.181.001-.001.003-.002.005-.003 71.874-50.188 157.697-50.191 229.579.003 5.575 3.888 6.949 11.596 3.073 17.166-3.901 5.583-11.604 6.965-17.168 3.085-31.527-22.016-66.108-33.021-100.702-33.021-34.585 0-69.183 11.008-100.716 33.017-2.682 1.872-5.951 2.583-9.196 2.001zm17.414 32.337v-15.977c1.102-.593 2.185-1.231 3.227-1.957 55.906-39.021 122.645-39.021 178.527.002 1.056.736 2.144 1.392 3.252 1.985v15.947c0 51.066-41.497 92.612-92.503 92.612s-92.503-41.546-92.503-92.612zm133.755 104.772v30.212c0 22.776-18.506 41.306-41.252 41.306s-41.252-18.53-41.252-41.306v-30.212c12.779 5.059 26.697 7.84 41.252 7.84s28.473-2.781 41.252-7.84zm42.898 116.729h-168.3v-66.857c8.405-2.174 16.513-4.291 24.322-6.557 6.014 27.527 30.548 48.202 59.829 48.202s53.814-20.675 59.829-48.202c7.809 2.266 15.917 4.383 24.322 6.557v66.857zm42.247 0h-22.247v-61.602c7.548 2.056 15.012 4.222 22.247 6.619zm74.103 76.619h-39.435v-51.936c0-10.049-6.036-18.709-14.668-22.556v-49.49c30.622 13.582 53.414 34.574 54.103 74.994z"/><path d="m256 492c-5.522 0-10 4.477-10 10s4.478 10 10 10h.057c5.522 0 9.972-4.477 9.972-10s-4.507-10-10.029-10z"/></g></g></svg>